<svg id="Layer_1" data-name="Layer 1" xmlns="http://www.w3.org/2000/svg" xmlns:xlink="http://www.w3.org/1999/xlink" viewBox="0 0 265.33 111.94"><defs><style>.cls-1{fill:#17479d;}.cls-2{fill:#231f20;}.cls-3{fill:#ec1c24;}.cls-4{fill:#b90646;}.cls-5{fill:url(#linear-gradient);}.cls-6{fill:url(#linear-gradient-2);}.cls-7{fill:url(#linear-gradient-3);}.cls-8{fill:url(#linear-gradient-4);}.cls-9{fill:url(#linear-gradient-5);}.cls-10{fill:url(#linear-gradient-6);}.cls-11{fill:url(#linear-gradient-7);}.cls-12{fill:url(#linear-gradient-8);}.cls-13{fill:url(#radial-gradient);}.cls-14{fill:url(#radial-gradient-2);}.cls-15{fill:url(#radial-gradient-3);}.cls-16{fill:url(#linear-gradient-9);}.cls-17{fill:url(#linear-gradient-10);}.cls-18{fill:url(#linear-gradient-11);}.cls-19{fill:url(#linear-gradient-12);}.cls-20{fill:url(#linear-gradient-13);}.cls-21{fill:url(#linear-gradient-14);}.cls-22{fill:url(#radial-gradient-4);}.cls-23{fill:url(#linear-gradient-15);}.cls-24{fill:url(#linear-gradient-16);}.cls-25{fill:url(#radial-gradient-5);}.cls-26{fill:url(#radial-gradient-6);}.cls-27{fill:url(#linear-gradient-17);}</style><linearGradient id="linear-gradient" x1="41.14" y1="23.95" x2="61.49" y2="23.95" gradientUnits="userSpaceOnUse"><stop offset="0" stop-color="#c6a02f"/><stop offset="1" stop-color="#fbae17"/></linearGradient><linearGradient id="linear-gradient-2" x1="13.45" y1="73.47" x2="28.91" y2="73.47" xlink:href="#linear-gradient"/><linearGradient id="linear-gradient-3" x1="27.15" y1="58.9" x2="52.38" y2="58.9" xlink:href="#linear-gradient"/><linearGradient id="linear-gradient-4" x1="8.54" y1="64.64" x2="28.64" y2="64.64" gradientUnits="userSpaceOnUse"><stop offset="0" stop-color="#88c665"/><stop offset="0.51" stop-color="#50b748"/><stop offset="1" stop-color="#3b9239"/></linearGradient><linearGradient id="linear-gradient-5" x1="26.19" y1="55.39" x2="53.97" y2="55.39" gradientUnits="userSpaceOnUse"><stop offset="0" stop-color="#86c775"/><stop offset="0.5" stop-color="#6c9f44"/><stop offset="1" stop-color="#c6a02f"/></linearGradient><linearGradient id="linear-gradient-6" x1="8.54" y1="55.39" x2="28.64" y2="55.39" gradientUnits="userSpaceOnUse"><stop offset="0" stop-color="#86c775"/><stop offset="0.51" stop-color="#6c9f44"/><stop offset="1" stop-color="#4e7e3a"/></linearGradient><linearGradient id="linear-gradient-7" x1="0.89" y1="-30.51" x2="7.35" y2="-30.51" gradientTransform="translate(26.47 113.47) rotate(-1.39)" gradientUnits="userSpaceOnUse"><stop offset="0" stop-color="#c6a02f"/><stop offset="1" stop-color="#f16522"/></linearGradient><linearGradient id="linear-gradient-8" x1="2.56" y1="54.67" x2="25.04" y2="54.67" gradientUnits="userSpaceOnUse"><stop offset="0.02" stop-color="#00b39b"/><stop offset="0.5" stop-color="#33aa8e"/><stop offset="1" stop-color="#00695e"/></linearGradient><radialGradient id="radial-gradient" cx="8.73" cy="39.91" r="13.37" gradientTransform="translate(8.33) scale(1.01 1)" gradientUnits="userSpaceOnUse"><stop offset="0" stop-color="#8a3802"/><stop offset="1" stop-color="#ec1c24"/></radialGradient><radialGradient id="radial-gradient-2" cx="16.63" cy="40.55" r="13.98" gradientUnits="userSpaceOnUse"><stop offset="0" stop-color="#8c3e02"/><stop offset="1" stop-color="#ec1c24"/></radialGradient><radialGradient id="radial-gradient-3" cx="32.67" cy="35.47" r="11.87" gradientTransform="translate(8.33) scale(1.01 1)" gradientUnits="userSpaceOnUse"><stop offset="0" stop-color="#ec1c24"/><stop offset="1" stop-color="#8c3e02"/></radialGradient><linearGradient id="linear-gradient-9" x1="20.72" y1="46.53" x2="55.74" y2="46.53" xlink:href="#linear-gradient-8"/><linearGradient id="linear-gradient-10" x1="33.33" y1="29.77" x2="58.29" y2="29.77" gradientTransform="matrix(1, 0, 0, 1, 0, 0)" xlink:href="#linear-gradient-7"/><linearGradient id="linear-gradient-11" x1="15.11" y1="25.8" x2="39.94" y2="25.8" gradientTransform="matrix(1, 0, 0, 1, 0, 0)" xlink:href="#linear-gradient-7"/><linearGradient id="linear-gradient-12" x1="33.39" y1="71.71" x2="49.81" y2="71.71" xlink:href="#linear-gradient-8"/><linearGradient id="linear-gradient-13" x1="33.38" y1="94.11" x2="42.8" y2="94.11" xlink:href="#linear-gradient-8"/><linearGradient id="linear-gradient-14" x1="28.04" y1="66.43" x2="47.69" y2="66.43" gradientTransform="matrix(1, 0, 0, 1, 0, 0)" xlink:href="#linear-gradient-7"/><radialGradient id="radial-gradient-4" cx="38.06" cy="73.08" r="10.21" xlink:href="#radial-gradient-3"/><linearGradient id="linear-gradient-15" x1="41.65" y1="97.99" x2="59.46" y2="97.99" xlink:href="#radial-gradient-2"/><linearGradient id="linear-gradient-16" x1="28.1" y1="13.66" x2="49.44" y2="13.66" xlink:href="#linear-gradient"/><radialGradient id="radial-gradient-5" cx="59.37" cy="19.26" r="13.91" gradientTransform="matrix(1, 0, 0, 1, 0, 0)" xlink:href="#radial-gradient-3"/><radialGradient id="radial-gradient-6" cx="179.28" cy="485.99" fx="168.1291051219458" r="12.39" gradientTransform="matrix(1, 0.11, -0.11, 0.99, -88, -497.46)" xlink:href="#radial-gradient-3"/><linearGradient id="linear-gradient-17" x1="26.19" y1="51.24" x2="53.96" y2="51.24" xlink:href="#linear-gradient-4"/></defs><title>Logo</title><path class="cls-1" d="M91.2,39.94a4.25,4.25,0,0,1-1.69-1,2.28,2.28,0,0,1,0-3.2,2.29,2.29,0,0,1,3.24,0,2.82,2.82,0,0,1,.64,1.16l-1.15.45a2.54,2.54,0,0,0-.38-.73,1,1,0,0,0-.73-.29,1,1,0,0,0-.73.3,1,1,0,0,0,0,1.45,3.28,3.28,0,0,0,.93.6,4.81,4.81,0,0,1,1.95,1.17,2.9,2.9,0,0,1,.9,2.15A3,3,0,0,1,89,44.17a3.38,3.38,0,0,1-.9-2l1.22-.45a2.57,2.57,0,0,0,.57,1.53,1.79,1.79,0,0,0,2.53-2.53A3.78,3.78,0,0,0,91.2,39.94Z"/><path class="cls-1" d="M104.36,41.83H103.2V45h-1.26V35.19h2.76a3.36,3.36,0,0,1,2,1,3.34,3.34,0,0,1,0,4.7,2.75,2.75,0,0,1-1,.76L107.85,45h-1.54Zm-1.16-5.37v4.1h1.16a2.05,2.05,0,0,0,0-4.1Z"/><path class="cls-1" d="M117,35.19V45h-1.26V35.19Z"/><path class="cls-1" d="M136.27,45V35.19h1.26v8.5H141V45Z"/><path class="cls-1" d="M163.9,35.19h1.15l4,7v-7h1.27V45h-1.11l-4.08-7.06V45H163.9Z"/><path class="cls-1" d="M180,40.35V45H178.7V35.19H180v3.08l2.3-3.08h1.6l-3,4L184.6,45h-1.53l-3-4.71Z"/><polygon class="cls-1" points="199.71 45.05 196.16 35.28 195.47 35.28 191.92 45.05 193.27 45.05 194.99 40.15 194.98 40.15 195.04 40 195.78 37.91 195.82 37.95 196.22 39.05 196.65 40.15 196.61 40.15 198.37 45.05 199.71 45.05"/><polygon class="cls-1" points="195.94 38.34 196.59 40.15 196.61 40.15 196.22 39.05 195.94 38.34"/><polygon class="cls-1" points="156.15 45.01 152.59 35.23 151.91 35.23 148.35 45.01 149.71 45.01 151.43 40.1 151.42 40.1 151.47 39.95 152.21 37.86 152.25 37.91 152.65 39.01 153.09 40.1 153.04 40.1 154.8 45.01 156.15 45.01"/><polygon class="cls-1" points="152.37 38.29 153.03 40.1 153.04 40.1 152.65 39.01 152.37 38.29"/><path class="cls-2" d="M127.12,87.28a1.7,1.7,0,0,1-.45,1.26,1.72,1.72,0,0,1-1.26.45,1.88,1.88,0,0,1-.83-.16,1.39,1.39,0,0,1-.67-.73,1.63,1.63,0,0,1-.1-.53c0-.23,0-.37,0-.42h.42a1.63,1.63,0,0,0,.3,1.07,1.18,1.18,0,0,0,1,.36,1.21,1.21,0,0,0,.82-.27,1.09,1.09,0,0,0,.35-.87,1.25,1.25,0,0,0-.25-.85,1.9,1.9,0,0,0-.74-.44l-.57-.21a6,6,0,0,1-.57-.25,1,1,0,0,1-.5-.5,1.92,1.92,0,0,1-.14-.78,1.52,1.52,0,0,1,.42-1.13,1.49,1.49,0,0,1,1.1-.42,1.62,1.62,0,0,1,1.15.38,1.43,1.43,0,0,1,.41,1.11h-.41a1,1,0,0,0-.28-.75,1.11,1.11,0,0,0-.8-.27,1.05,1.05,0,0,0-1,.44,1.24,1.24,0,0,0-.18.68.91.91,0,0,0,.63.94l.93.37a2.1,2.1,0,0,1,1,.73A1.44,1.44,0,0,1,127.12,87.28Z"/><path class="cls-2" d="M132.39,83.38H130v2.18h2.16V86H130v2.5h2.28v.4h-2.73V83h2.79Z"/><path class="cls-2" d="M138.47,88.86H138l-.43-1.75h-2l-.44,1.75h-.49l1.6-5.88h.76Zm-1.06-2.15-.85-3.34-.94,3.34Z"/><path class="cls-2" d="M145,88.86h-.42V83.42q0,.21-.39,1.61l-.64,2.52-.34,1.31h-.59c-.11-.44-.23-.88-.34-1.32L141.61,85q-.4-1.6-.41-1.61v5.48h-.42V83h.71q.17.66.35,1.31.46,1.73.67,2.53a13.41,13.41,0,0,1,.36,1.65L144.3,83H145Z"/><path class="cls-2" d="M150.68,88.86h-2.85V83h.45v5.48h2.4Z"/><path class="cls-2" d="M155.82,83.38h-2.35v2.18h2.16V86h-2.16v2.5h2.28v.4H153V83h2.79Z"/><path class="cls-2" d="M161.63,87.28a1.69,1.69,0,0,1-.46,1.26,1.72,1.72,0,0,1-1.25.45,1.89,1.89,0,0,1-.83-.16,1.39,1.39,0,0,1-.67-.73,1.65,1.65,0,0,1-.1-.53c0-.23,0-.37,0-.42h.42a1.64,1.64,0,0,0,.3,1.07,1.18,1.18,0,0,0,1,.36,1.21,1.21,0,0,0,.82-.27,1.09,1.09,0,0,0,.35-.87,1.25,1.25,0,0,0-.25-.85,1.9,1.9,0,0,0-.74-.44l-.57-.21c-.24-.09-.43-.18-.57-.25a1,1,0,0,1-.5-.5,1.94,1.94,0,0,1-.14-.78,1.53,1.53,0,0,1,.42-1.13,1.49,1.49,0,0,1,1.1-.42,1.63,1.63,0,0,1,1.15.38,1.44,1.44,0,0,1,.41,1.11h-.41a1,1,0,0,0-.28-.75,1.11,1.11,0,0,0-.8-.27,1.05,1.05,0,0,0-1,.44,1.24,1.24,0,0,0-.18.68.91.91,0,0,0,.63.94l.93.37a2.09,2.09,0,0,1,1,.73A1.44,1.44,0,0,1,161.63,87.28Z"/><path class="cls-2" d="M167.46,87.28a1.69,1.69,0,0,1-.46,1.26,1.72,1.72,0,0,1-1.26.45,1.88,1.88,0,0,1-.83-.16,1.39,1.39,0,0,1-.67-.73,1.64,1.64,0,0,1-.1-.53c0-.23,0-.37,0-.42h.42a1.64,1.64,0,0,0,.3,1.07,1.18,1.18,0,0,0,1,.36,1.21,1.21,0,0,0,.82-.27,1.09,1.09,0,0,0,.35-.87,1.25,1.25,0,0,0-.25-.85,1.91,1.91,0,0,0-.74-.44l-.56-.21c-.24-.09-.43-.18-.57-.25a1,1,0,0,1-.5-.5,1.94,1.94,0,0,1-.14-.78,1.53,1.53,0,0,1,.42-1.13,1.49,1.49,0,0,1,1.1-.42,1.63,1.63,0,0,1,1.15.38,1.44,1.44,0,0,1,.41,1.11h-.41a1,1,0,0,0-.28-.75,1.11,1.11,0,0,0-.8-.27,1.06,1.06,0,0,0-1,.44,1.25,1.25,0,0,0-.18.68.91.91,0,0,0,.63.94l.93.37a2.09,2.09,0,0,1,1,.73A1.44,1.44,0,0,1,167.46,87.28Z"/><path class="cls-2" d="M177.89,87.28a1.69,1.69,0,0,1-.46,1.26,1.72,1.72,0,0,1-1.25.45,1.88,1.88,0,0,1-.83-.16,1.39,1.39,0,0,1-.67-.73,1.66,1.66,0,0,1-.1-.53c0-.23,0-.37,0-.42H175a1.64,1.64,0,0,0,.3,1.07,1.18,1.18,0,0,0,1,.36,1.21,1.21,0,0,0,.82-.27,1.09,1.09,0,0,0,.35-.87,1.25,1.25,0,0,0-.25-.85,1.89,1.89,0,0,0-.74-.44l-.57-.21c-.24-.09-.43-.18-.57-.25a1,1,0,0,1-.5-.5,1.92,1.92,0,0,1-.14-.78,1.52,1.52,0,0,1,.42-1.13,1.49,1.49,0,0,1,1.1-.42,1.63,1.63,0,0,1,1.15.38,1.43,1.43,0,0,1,.41,1.11h-.41a1,1,0,0,0-.28-.75,1.11,1.11,0,0,0-.8-.27,1.05,1.05,0,0,0-1,.44,1.25,1.25,0,0,0-.18.68.91.91,0,0,0,.63.94l.93.37a2.09,2.09,0,0,1,1,.73A1.44,1.44,0,0,1,177.89,87.28Z"/><path class="cls-2" d="M184.15,85.89A6.23,6.23,0,0,1,184,87.1a3.06,3.06,0,0,1-.52,1.29,1.48,1.48,0,0,1-1.23.6,1.56,1.56,0,0,1-1.51-1,5.25,5.25,0,0,1-.35-2.11,7.36,7.36,0,0,1,.1-1.37,2.28,2.28,0,0,1,.52-1.14,1.63,1.63,0,0,1,1.24-.46,1.55,1.55,0,0,1,1.31.6A4.12,4.12,0,0,1,184.15,85.89Zm-.5-.06a5,5,0,0,0-.23-1.79,1.19,1.19,0,0,0-1.19-.78,1.15,1.15,0,0,0-1.09.86,4.69,4.69,0,0,0-.26,1.71,4.78,4.78,0,0,0,.31,1.82q.38.92,1.11.92t1.13-1A5.65,5.65,0,0,0,183.64,85.83Z"/><path class="cls-2" d="M189.74,88.86h-2.85V83h.45v5.48h2.4Z"/><path class="cls-2" d="M195.49,87.23a2.07,2.07,0,0,1-.26,1.08,1.45,1.45,0,0,1-1.35.68,1.77,1.77,0,0,1-1.4-.46,2,2,0,0,1-.33-1.29V83h.45v4.25a1.45,1.45,0,0,0,.33,1.08,1.26,1.26,0,0,0,.9.27,1.14,1.14,0,0,0,.93-.36,1.74,1.74,0,0,0,.29-1.11V83h.45Z"/><path class="cls-2" d="M201.26,83.45h-1.48v5.41h-.45V83.45h-1.55V83h3.48Z"/><path class="cls-2" d="M204.1,88.86h-.45V83h.45Z"/><path class="cls-2" d="M210.62,85.89a6.27,6.27,0,0,1-.11,1.21,3.07,3.07,0,0,1-.52,1.29,1.48,1.48,0,0,1-1.23.6,1.56,1.56,0,0,1-1.51-1,5.26,5.26,0,0,1-.35-2.11,7.32,7.32,0,0,1,.1-1.37,2.28,2.28,0,0,1,.52-1.14,1.63,1.63,0,0,1,1.24-.46,1.55,1.55,0,0,1,1.31.6A4.12,4.12,0,0,1,210.62,85.89Zm-.5-.06a4.94,4.94,0,0,0-.24-1.79,1.19,1.19,0,0,0-1.18-.78,1.16,1.16,0,0,0-1.09.86,4.73,4.73,0,0,0-.26,1.71,4.79,4.79,0,0,0,.31,1.82q.38.92,1.11.92t1.13-1A5.68,5.68,0,0,0,210.12,85.83Z"/><path class="cls-2" d="M216.45,88.86h-.78l-2.06-5.48v5.48h-.45V83h.76L216,88.4V83h.48Z"/><path class="cls-2" d="M222.32,87.28a1.69,1.69,0,0,1-.46,1.26,1.72,1.72,0,0,1-1.26.45,1.88,1.88,0,0,1-.83-.16,1.39,1.39,0,0,1-.67-.73,1.66,1.66,0,0,1-.1-.53c0-.23,0-.37,0-.42h.42a1.64,1.64,0,0,0,.3,1.07,1.18,1.18,0,0,0,1,.36,1.21,1.21,0,0,0,.83-.27,1.08,1.08,0,0,0,.35-.87,1.26,1.26,0,0,0-.25-.85,1.91,1.91,0,0,0-.74-.44l-.56-.21a6.2,6.2,0,0,1-.57-.25,1,1,0,0,1-.5-.5,1.94,1.94,0,0,1-.14-.78,1.53,1.53,0,0,1,.42-1.13,1.49,1.49,0,0,1,1.1-.42,1.63,1.63,0,0,1,1.15.38,1.43,1.43,0,0,1,.41,1.11h-.41a1,1,0,0,0-.28-.75,1.11,1.11,0,0,0-.8-.27,1.05,1.05,0,0,0-1,.44,1.25,1.25,0,0,0-.18.68.91.91,0,0,0,.63.94l.93.37a2.09,2.09,0,0,1,1,.73A1.43,1.43,0,0,1,222.32,87.28Z"/><path class="cls-3" d="M115.65,66.84v6.59H113V52.83h5.84a7.06,7.06,0,0,1,4.19,2,7,7,0,0,1-4.94,12Zm0-11.33v8.65h2.43a4.32,4.32,0,0,0,0-8.65Z"/><path class="cls-3" d="M143.79,66.84v6.59h-2.66V52.83H147a7.12,7.12,0,0,1,4.2,2,7,7,0,0,1-4.94,12Zm0-11.33v8.65h2.44a4.32,4.32,0,0,0,0-8.65Z"/><path class="cls-3" d="M204.79,66.84h-2.43v6.59h-2.67V52.83h5.85a7.11,7.11,0,0,1,4.2,2,7,7,0,0,1,0,9.91,5.81,5.81,0,0,1-2.16,1.6l4.57,7H208.9Zm-2.43-11.33v8.65h2.43a4.32,4.32,0,0,0,0-8.65Z"/><path class="cls-3" d="M239.26,52.83V55.5h-8.43v6.3h8.43v2.67h-8.43v6.29h8.43v2.68H228.17V52.83Z"/><path class="cls-3" d="M255.3,73.43V52.83H258V70.75h7.36v2.68Z"/><path class="cls-3" d="M94.23,73.43h2.66L90.16,54.51l-.6-1.68H88.1l-.6,1.68L80.77,73.43h2.66l1.81-5.09h7.18Zm-8-7.74,2.65-7.44,2.65,7.44Z"/><path class="cls-3" d="M180.93,73.43h2.66l-6.73-18.92-.6-1.68h-1.46l-.6,1.68-6.73,18.92h2.66l1.81-5.09h7.18Zm-8-7.74,2.65-7.44,2.65,7.44Z"/><path class="cls-4" d="M64.11,91.45c-.6.21-.93.36-.93.36s.34.16.93.36a23.73,23.73,0,0,0,2.44.7,35.83,35.83,0,0,0,7.54.79L74.25,90a37.26,37.26,0,0,0-7.7.8A23.52,23.52,0,0,0,64.11,91.45Z"/><path class="cls-4" d="M74.32,74.9l.25-2.45L63,68.78l9.39,8.6-.11.14c-.22.06-.44.12-.65.2a10,10,0,0,0-3.12,1.89,8.37,8.37,0,0,0-1.35,1.52,4.3,4.3,0,0,0,1.55.48,7.27,7.27,0,0,0,3.27-.4A9.91,9.91,0,0,0,74.26,80l-.2-2.42.27-2.72Z"/><path class="cls-4" d="M64.09,53.22c0,.06,0,.1,0,.17A32.05,32.05,0,0,0,64.21,57a20,20,0,0,0,.66,3.67,21.1,21.1,0,0,0,1.66-3.42,33.8,33.8,0,0,0,1.14-3.47,40.78,40.78,0,0,0,1.24-7.06L69,45.34l-1.31-.47c-1.47-.53-3-1-4.52-1.4l-1-.25-.45.26c-1,.56-1.9,1.15-2.82,1.79a24.67,24.67,0,0,0-2.64,2.09l.48-.05A10.93,10.93,0,0,0,64.09,53.22Zm-4.21-6.37c1.14-.23,2.25-.51,3.35-.81l.4.31a3.8,3.8,0,0,0-1,2.7,3.36,3.36,0,0,0,1.75,3.18s0,.06,0,.1a10.17,10.17,0,0,1-6.51-5.13C58.52,47.1,59.2,47,59.89,46.85Z"/><path class="cls-4" d="M55.74,40.86l0,.07,0-.07Z"/><path class="cls-4" d="M55.71,40.93l-.11.18h0Z"/><polygon class="cls-4" points="73.43 44.86 73.78 39 69.98 35.83 60.39 27.81 61.23 29.84 73.43 44.86"/><path class="cls-4" d="M53.48,61.73s-.48-1.9-5-7.58v0l2.94-3.63-4.1,3.66-.86.76,1,2.25.22.47,1.39,3,.21.46,2.12,4.58,12,25.81Z"/><path class="cls-5" d="M49.44,10.31c-2.63,1-5.26,2.14-7.89,3.38,5.58,7.92,11.17,14.88,16.74,23.88,1.07-1.38,2.13-2.83,3.21-4.08Z"/><path class="cls-6" d="M13.45,83.93a48.32,48.32,0,0,0,10.68,1.43c1.65-7.59,3.14-15.53,4.79-23.79A179.28,179.28,0,0,1,13.45,83.93Z"/><path class="cls-7" d="M52.38,47.33A49.76,49.76,0,0,0,47.16,49C41.08,52.73,35,57.47,28.91,61.57c-.6,3-1.16,6-1.77,8.9,8.19-6.57,16.35-15,24.54-20.53a20.54,20.54,0,0,0,.69-2.61"/><path class="cls-8" d="M28.64,52.1h0c-6.7,10.06-13.4,19.12-20.1,25.1,4.38-.31,8.81-1.52,10.51-2.93.08-.07,6.4-14,7.14-15.58h0C27.13,56.09,27.91,54.07,28.64,52.1Z"/><path class="cls-9" d="M28.64,52.1c-.72,2-1.5,4-2.44,6.58h0l.07-.16Z"/><path class="cls-10" d="M28.64,52.1c-.72,2-1.5,4-2.44,6.58h0l.07-.16Z"/><path class="cls-11" d="M26.88,93.55c2.12-1.34,4.24-2.8,6.35-4.32C31.52,83.49,29.76,77.94,28,72.31,27.63,79.59,27.29,86.67,26.88,93.55Z"/><path class="cls-12" d="M2.56,64.68a24.3,24.3,0,0,0,11.63,1.73C17.8,59.34,21.42,51.23,25,42.83,17.55,52.65,10,61.09,2.56,64.68Z"/><polygon class="cls-13" points="33.26 29.86 33.25 29.86 33.26 29.86 33.26 29.86"/><path class="cls-14" d="M33.25,29.86,33,30C22,35.38,11,41.18,0,37.4A72.63,72.63,0,0,0,13.86,51.24,138.39,138.39,0,0,0,26.35,38c2.3-2.7,4.61-5.45,6.91-8.13Z"/><path class="cls-15" d="M56.06,40.27a94.61,94.61,0,0,0-9.17-7C42.34,32,37.8,31.12,33.25,29.86,31,32.54,28.65,35.29,26.35,38c9.12,1.28,18.38.36,27.52,2.65q.94.09,1.88.23Z"/><path class="cls-16" d="M53.86,40.63C44.25,39.71,34.64,42.5,25,42.82c-1.46,3.37-2.84,6.57-4.3,9.79.3-.09.52,0,.81-.13C32.35,50.54,43.16,44.68,54,43.8c.54-.92,1.09-1.81,1.63-2.7l.11-.18,0-.07Q54.8,40.72,53.86,40.63Z"/><path class="cls-17" d="M39.93,19.27c-2.2,1.47-4.4,3.07-6.6,4.7,4.52,3.41,9,6.19,13.56,9.3a94.62,94.62,0,0,1,9.17,7c.39-.41.65-.84,1-1.24l1.12-1.33.07-.12C52.12,30.21,46.09,25.27,39.93,19.27Z"/><path class="cls-18" d="M15.11,24.56c2.31,2.79,4.61,5.4,6.92,7.76,3.76-2.65,7.53-5.56,11.3-8.36,2.2-1.63,4.42-3.22,6.62-4.69Z"/><path class="cls-19" d="M38,83.65c3.68-7.61,7.36-15.58,11-23l-1.39-3c-.68.73-1.35,1.47-2,2.22C41.57,66,37.48,72.52,33.39,78.65l.1.22c1.21,2.25,2.42,4.55,3.64,6.92C37.44,85.07,37.74,84.36,38,83.65Z"/><path class="cls-20" d="M37.14,85.79c-1.22-2.37-2.44-4.67-3.64-6.92l-.11-.21c1.31,10,2.68,20.22,4,30.92,1.81-3.86,3.61-8,5.42-12.19C40.93,93.29,39,89.46,37.14,85.79Z"/><path class="cls-21" d="M46.43,54.91C38,62.45,31.85,68.89,28,72.32l1.73,5.63c5.29-5.75,10.59-12.24,15.88-18.1.68-.75,1.36-1.49,2-2.22Z"/><path class="cls-22" d="M41.65,84c1.86.77,3.72,1.64,5.58,2.59,0-.27,0-1.09,0-1.35C48.61,78.63,50,72,51.41,65.66l-2.12-4.58c-2.55,7.47-5.09,15.29-7.64,23h0Z"/><path class="cls-23" d="M59.24,94.22a81.22,81.22,0,0,0-12-7.59c-1.86-1-3.72-1.82-5.58-2.59l0,0c5.92,7.64,11.86,17.39,17.79,27.88Q59.35,102.9,59.24,94.22Z"/><path class="cls-24" d="M28.1,12c2.28,1.82,4.56,3.47,6.84,5q3.28-1.75,6.56-3.3c2.63-1.24,5.3-2.41,7.93-3.41C49.38,10.32,35.15,11.48,28.1,12Z"/><path class="cls-25" d="M56.15,3.42h0l-7.35-.73.56,1.21L60.39,27.81l9.59,8C66.9,28,60,11,56.15,3.42Z"/><path class="cls-26" d="M56.1,3.41h0Q39,1.65,21.83,0,22.89,3.86,24,7.53A245.88,245.88,0,0,1,49.32,3.9l-.56-1.21Z"/><path class="cls-27" d="M28.64,52.1h0l-2.37,6.42-.07.16c7-2.88,14-7,21-9.64a49.76,49.76,0,0,1,5.23-1.71L53,45.86c.31-.69.61-1.38.92-2.05C45.52,44.93,28.64,52.1,28.64,52.1Z"/></svg>